<svg width="83" height="83" viewBox="0 0 83 83" fill="none" xmlns="http://www.w3.org/2000/svg">
<path d="M20.4141 42.5798C20.4281 46.7436 20.9504 50.8901 21.9693 54.9277H38.224V31.1836H21.7435C20.8764 34.921 20.4305 38.7435 20.4141 42.5798Z" fill="#B92427"/>
<path d="M42.4883 54.9528H58.743C59.8062 50.9123 60.3706 46.7571 60.4237 42.5798C60.4155 38.7444 59.9779 34.9219 59.1193 31.1836H42.4883V54.9528Z" fill="#B92427"/>
<path d="M78.2842 29.5804C76.7677 30.2752 75.1647 30.7638 73.5182 31.0331H72.9663C71.2457 31.2989 69.4944 31.2989 67.7738 31.0331H63.2586C64.1104 34.824 64.5561 38.6946 64.5881 42.5796C64.5752 46.736 64.0956 50.8778 63.1583 54.9275H73.1921C72.6072 56.4863 71.9114 58.0013 71.1101 59.4609H61.9292C60.2122 64.8279 57.6738 69.8972 54.4038 74.4889C51.9908 75.5389 49.4662 76.312 46.8785 76.7932C51.5128 71.7651 55.0795 65.8522 57.3638 59.4108H42.5138V77.3191H38.2745V59.3858H23.3493C25.6305 65.8361 29.1974 71.7577 33.8346 76.7932C31.3002 76.3172 28.8267 75.5611 26.4598 74.539C23.1783 69.9089 20.6394 64.7965 18.9344 59.3858H9.70336C8.90202 57.9261 8.20624 56.4111 7.62135 54.8524H17.6551C16.7149 50.8281 16.227 46.7118 16.2002 42.5796C16.2016 38.7492 16.6052 34.9296 17.4043 31.1834H7.14475C7.67227 29.6292 8.30933 28.1143 9.05117 26.6499H18.6083C20.4016 20.6865 23.1826 15.065 26.836 10.019C29.1528 9.06053 31.5665 8.35512 34.0353 7.91511C29.0451 13.2627 25.2791 19.6296 22.9981 26.5748H38.2745V7.51437H42.5138V26.6499H57.7902V26.3243C54.4204 23.2089 52.3137 18.9663 51.8703 14.4022C50.3705 12.1436 48.6929 10.0078 46.8534 8.0153C48.6086 8.35299 50.3359 8.82185 52.0208 9.41791C52.2911 7.80923 52.7719 6.24296 53.4506 4.75925C44.8373 1.7855 35.4687 1.81573 26.8749 4.84501C18.281 7.87429 10.9698 13.7236 6.13535 21.4376C1.30086 29.1516 -0.771214 38.2745 0.257552 47.3162C1.28632 56.3579 5.35512 64.7842 11.7994 71.2188C18.2438 77.6534 26.6828 81.716 35.7381 82.7432C44.7935 83.7704 53.9302 81.7015 61.6559 76.8743C69.3816 72.0471 75.2397 64.7469 78.2736 56.1661C81.3074 47.5852 81.3377 38.2307 78.3595 29.6305L78.2842 29.5804Z" fill="#B92427"/>
<path d="M70.4582 25.0466C77.3851 25.0466 83.0005 19.4397 83.0005 12.5233C83.0005 5.60686 77.3851 0 70.4582 0C63.5314 0 57.916 5.60686 57.916 12.5233C57.916 19.4397 63.5314 25.0466 70.4582 25.0466Z" fill="#B92427"/>
</svg>
