<svg width="82" height="82" viewBox="0 0 82 82" fill="none" xmlns="http://www.w3.org/2000/svg">
<path d="M71.75 82H10.25C7.42057 82 5.00488 80.999 3.00293 78.9971C1.00098 76.9951 0 74.5794 0 71.75V20.5C0 17.6706 1.00098 15.2549 3.00293 13.2529C5.00488 11.251 7.42057 10.25 10.25 10.25H15.375L20.5 2.5625C21.4609 0.854167 24.8776 0 30.75 0H51.25C57.1224 0 60.5391 0.854167 61.5 2.5625L66.625 10.25H71.75C74.5794 10.25 76.9951 11.251 78.9971 13.2529C80.999 15.2549 82 17.6706 82 20.5V71.75C82 74.5794 80.999 76.9951 78.9971 78.9971C76.9951 80.999 74.5794 82 71.75 82ZM25.625 5.125L20.5 12.8125L28.1875 20.5L35.875 10.25L25.625 5.125ZM32.1113 24.1035C30.7767 25.1178 29.4688 25.625 28.1875 25.625C26.4792 25.625 24.7708 24.7708 23.0625 23.0625L17.9375 17.9375C17.2435 17.2435 16.6562 16.3893 16.1758 15.375H10.25C8.86198 15.375 7.66081 15.8688 6.64648 16.8564C5.63216 17.8441 5.125 19.0586 5.125 20.5V71.75C5.125 73.1914 5.61881 74.4059 6.60645 75.3936C7.59408 76.3812 8.80859 76.875 10.25 76.875H25.625L35.9551 27.4668L32.1113 24.1035ZM56.375 5.125L46.125 10.25L53.8125 20.5L61.5 12.8125L56.375 5.125ZM76.875 20.5C76.875 19.0586 76.3678 17.8441 75.3535 16.8564C74.3392 15.8688 73.138 15.375 71.75 15.375H65.7441C65.3171 16.3893 64.7565 17.2435 64.0625 17.9375L58.9375 23.0625C57.2292 24.7708 55.5208 25.625 53.8125 25.625C52.5312 25.625 51.2233 25.1178 49.8887 24.1035L45.9648 27.5469L56.375 76.875H71.75C73.138 76.875 74.3392 76.3812 75.3535 75.3936C76.3678 74.4059 76.875 73.1914 76.875 71.75V20.5Z" fill="#B92427"/>
</svg>
