<svg width="82" height="75" viewBox="0 0 82 75" fill="none" xmlns="http://www.w3.org/2000/svg">
<path d="M19.8794 21.7747C20.5384 21.7747 21.1704 21.5198 21.6364 21.0661C22.1024 20.6124 22.3642 19.997 22.3642 19.3554V4.83927C22.3642 4.19762 22.1024 3.58225 21.6364 3.12853C21.1704 2.67482 20.5384 2.41992 19.8794 2.41992C19.2203 2.41992 18.5883 2.67482 18.1223 3.12853C17.6563 3.58225 17.3945 4.19762 17.3945 4.83927V19.3554C17.3945 19.997 17.6563 20.6124 18.1223 21.0661C18.5883 21.5198 19.2203 21.7747 19.8794 21.7747Z" fill="#B92427"/>
<path d="M69.5756 30.2411C64.633 30.2411 59.8928 28.3294 56.3978 24.9265C52.9029 21.5237 50.9394 16.9084 50.9394 12.096H25.3458V19.354C25.3458 20.7657 24.7698 22.1195 23.7447 23.1177C22.7195 24.1158 21.329 24.6766 19.8792 24.6766C18.4294 24.6766 17.0389 24.1158 16.0137 23.1177C14.9885 22.1195 14.4126 20.7657 14.4126 19.354V12.096H4.47331C3.88198 12.0894 3.29531 12.1984 2.74799 12.4165C2.20067 12.6345 1.70381 12.9572 1.28681 13.3655C0.869815 13.7737 0.541137 14.2593 0.32022 14.7934C0.0993031 15.3275 -0.00936642 15.8993 0.000638726 16.475V70.6201C-0.0092335 71.1856 0.09542 71.7475 0.308621 72.2737C0.521823 72.7999 0.839396 73.28 1.2432 73.6866C1.64701 74.0933 2.12913 74.4185 2.66205 74.6437C3.19496 74.8689 3.76821 74.9896 4.34907 74.9991H75.1664C75.7473 74.9896 76.3205 74.8689 76.8534 74.6437C77.3864 74.4185 77.8685 74.0933 78.2723 73.6866C78.6761 73.28 78.9937 72.7999 79.2069 72.2737C79.4201 71.7475 79.5247 71.1856 79.5148 70.6201V27.4347C76.5431 29.2711 73.0953 30.2447 69.5756 30.2411ZM19.8792 60.483H14.9096V55.6443H19.8792V60.483ZM19.8792 48.3862H14.9096V43.5475H19.8792V48.3862ZM19.8792 36.2895H14.9096V31.4508H19.8792V36.2895ZM34.7881 60.483H29.8185V55.6443H34.7881V60.483ZM34.7881 48.3862H29.8185V43.5475H34.7881V48.3862ZM34.7881 36.2895H29.8185V31.4508H34.7881V36.2895ZM49.697 60.483H44.7274V55.6443H49.697V60.483ZM49.697 48.3862H44.7274V43.5475H49.697V48.3862ZM49.697 36.2895H44.7274V31.4508H49.697V36.2895ZM64.6059 60.483H59.6363V55.6443H64.6059V60.483ZM64.6059 48.3862H59.6363V43.5475H64.6059V48.3862ZM64.6059 36.2895H59.6363V31.4508H64.6059V36.2895Z" fill="#B92427"/>
<path d="M69.5764 24.1935C76.4381 24.1935 82.0005 18.7776 82.0005 12.0968C82.0005 5.4159 76.4381 0 69.5764 0C62.7148 0 57.1523 5.4159 57.1523 12.0968C57.1523 18.7776 62.7148 24.1935 69.5764 24.1935Z" fill="#B92427"/>
</svg>
