<svg width="82" height="82" viewBox="0 0 82 82" fill="none" xmlns="http://www.w3.org/2000/svg">
<path d="M23.6043 46.5057C24.5059 46.7251 25.4293 46.843 26.3571 46.8571C28.6835 46.8565 30.957 46.1633 32.8879 44.8657L42.3179 53.2707C41.5708 54.6892 41.1324 56.2498 41.0315 57.8498C40.9305 59.4498 41.1693 61.0531 41.7321 62.5543C42.3233 64.2552 43.2986 65.7969 44.5824 67.0597C45.8661 68.3224 47.4237 69.2723 49.1341 69.8354C50.8445 70.3984 52.6616 70.5596 54.4445 70.3064C56.2273 70.0532 57.9277 69.3924 59.4137 68.3753C60.8996 67.3582 62.1311 66.0123 63.0125 64.442C63.8938 62.8717 64.4013 61.1194 64.4954 59.3211C64.5896 57.5229 64.2679 55.7271 63.5554 54.0734C62.8429 52.4197 61.7588 50.9524 60.3871 49.7857L67.8257 34.8793C69.2776 35.2068 70.7806 35.2381 72.2449 34.9714C73.7092 34.7047 75.1046 34.1455 76.3479 33.3271C78.4591 32.0387 80.1083 30.1151 81.0593 27.8318C82.0102 25.5486 82.2141 23.023 81.6417 20.6168C81.0693 18.2106 79.75 16.0474 77.8727 14.4369C75.9955 12.8265 73.6567 11.8516 71.1915 11.6519C68.7262 11.4521 66.261 12.0378 64.149 13.325C62.037 14.6122 60.3866 16.5348 59.4343 18.8175C58.482 21.1001 58.2766 23.6256 58.8476 26.0322C59.4186 28.4387 60.7366 30.6028 62.6129 32.2143L55.1743 47.1207C54.3664 46.9431 53.5415 46.8547 52.7143 46.8571C50.3879 46.8578 48.1144 47.551 46.1836 48.8486L36.7536 40.4436C37.5006 39.025 37.939 37.4645 38.0399 35.8645C38.1409 34.2644 37.9021 32.6612 37.3393 31.16C36.7525 29.4715 35.787 27.9396 34.5169 26.6818C33.2467 25.4239 31.7055 24.4735 30.0113 23.9032C28.3171 23.3329 26.5149 23.1579 24.7426 23.3916C22.9704 23.6253 21.2751 24.2615 19.7867 25.2515C18.2982 26.2415 17.0561 27.559 16.1554 29.1031C15.2548 30.6472 14.7194 32.3769 14.5904 34.1599C14.4614 35.9428 14.7421 37.7316 15.4111 39.3893C16.0801 41.047 17.1196 42.5296 18.45 43.7236L5.85714 67.3571V0H0V76.1429C0 77.6963 0.61709 79.1861 1.71552 80.2845C2.81394 81.3829 4.30373 82 5.85714 82H82V76.1429H7.81929L23.6043 46.5057ZM70.2857 17.5714C71.4441 17.5714 72.5766 17.9149 73.5398 18.5585C74.503 19.2021 75.2537 20.1169 75.697 21.1871C76.1403 22.2574 76.2563 23.4351 76.0303 24.5712C75.8043 25.7074 75.2465 26.7511 74.4273 27.5702C73.6082 28.3893 72.5646 28.9472 71.4284 29.1732C70.2922 29.3992 69.1145 29.2832 68.0443 28.8399C66.974 28.3966 66.0593 27.6458 65.4157 26.6826C64.7721 25.7194 64.4286 24.587 64.4286 23.4286C64.4286 21.8752 65.0457 20.3854 66.1441 19.2869C67.2425 18.1885 68.7323 17.5714 70.2857 17.5714ZM58.5714 58.5714C58.5714 59.7299 58.2279 60.8623 57.5843 61.8255C56.9407 62.7887 56.026 63.5394 54.9557 63.9827C53.8855 64.426 52.7078 64.542 51.5716 64.316C50.4354 64.09 49.3918 63.5322 48.5727 62.7131C47.7535 61.8939 47.1957 60.8503 46.9697 59.7141C46.7437 58.5779 46.8597 57.4002 47.303 56.33C47.7463 55.2597 48.497 54.345 49.4602 53.7014C50.4234 53.0578 51.5559 52.7143 52.7143 52.7143C54.2677 52.7143 55.7575 53.3314 56.8559 54.4298C57.9543 55.5282 58.5714 57.018 58.5714 58.5714ZM26.3571 29.2857C27.5156 29.2857 28.648 29.6292 29.6112 30.2728C30.5744 30.9164 31.3251 31.8312 31.7684 32.9014C32.2118 33.9717 32.3277 35.1494 32.1017 36.2855C31.8757 37.4217 31.3179 38.4653 30.4988 39.2845C29.6796 40.1036 28.636 40.6615 27.4998 40.8875C26.3636 41.1135 25.186 40.9975 24.1157 40.5542C23.0455 40.1108 22.1307 39.3601 21.4871 38.3969C20.8435 37.4337 20.5 36.3013 20.5 35.1429C20.5 33.5894 21.1171 32.0997 22.2155 31.0012C23.3139 29.9028 24.8037 29.2857 26.3571 29.2857Z" fill="#B92427"/>
</svg>
