<svg xmlns="http://www.w3.org/2000/svg" style="display:none;">
    <!-- Шапка -->
    <symbol id="phone" viewBox="0 0 14 14">
        <path d="M8.72514 4.03387L8.5593 3.87615C8.14866 3.45031 8.21973 3.25316 8.62248 2.85098L10.7704 0.682355C11.4101 0.0357097 11.5286 -0.271841 12.1366 0.303831L12.3025 0.461549L8.72514 4.03387ZM9.14368 4.38874L12.6183 0.918932C13.1711 1.66021 14.4662 3.65535 13.8266 5.13001C13.2501 6.44696 12.9658 6.51005 12.2472 7.49579C10.7862 9.15972 8.94625 10.9419 7.50901 12.2825C6.51399 13.0002 6.47451 13.3314 5.13992 13.8597C3.71847 14.4196 1.66527 13.1579 0.891364 12.6295L4.36602 9.15972L5.29786 10.4372C5.56636 10.8 6.2455 10.3899 6.71931 9.91676C7.5406 9.08874 9.23054 7.40904 9.87809 6.7072C10.344 6.24193 10.7626 5.56374 10.3993 5.28773L9.14368 4.38874ZM0.441238 12.3141L0.275402 12.1485C-0.261591 11.5649 0.0463901 11.4387 0.686043 10.8079L2.84981 8.6629C3.25255 8.27649 3.44208 8.18975 3.85272 8.57616L4.01066 8.74176L0.441238 12.3141Z" fill="#222222"/>
    </symbol>    
    <symbol id="mail" viewBox="0 0 20 16">
        <path fill-rule="evenodd" clip-rule="evenodd" d="M1 3.33333V12.6667C1 13.2855 1.27092 13.879 1.75315 14.3166C2.23539 14.7542 2.88944 15 3.57143 15H16.4286C17.1106 15 17.7646 14.7542 18.2468 14.3166C18.7291 13.879 19 13.2855 19 12.6667V3.33333C19 2.71449 18.7291 2.121 18.2468 1.68342C17.7646 1.24583 17.1106 1 16.4286 1H3.57143C2.88944 1 2.23539 1.24583 1.75315 1.68342C1.27092 2.121 1 2.71449 1 3.33333V3.33333Z" stroke="#222222" stroke-linecap="round" stroke-linejoin="round"/>
        <path d="M3.57129 4.5L9.99986 8L16.4284 4.5" stroke="#222222" stroke-linecap="round" stroke-linejoin="round"/>
    </symbol>
    <symbol id="adress" viewBox="0 0 13 14">       
        <path d="M4.91307 2.38574C4.44045 2.38574 3.97844 2.52589 3.58546 2.78847C3.19249 3.05104 2.8862 3.42425 2.70534 3.8609C2.52447 4.29755 2.47715 4.77803 2.56935 5.24157C2.66156 5.70511 2.88915 6.13091 3.22335 6.4651C3.55754 6.7993 3.98333 7.02689 4.44688 7.11909C4.91042 7.2113 5.3909 7.16397 5.82754 6.98311C6.26419 6.80224 6.6374 6.49596 6.89998 6.10298C7.16255 5.71001 7.3027 5.248 7.3027 4.77538C7.3027 4.14161 7.05094 3.53379 6.6028 3.08565C6.15465 2.63751 5.54684 2.38574 4.91307 2.38574ZM4.91307 6.33093C4.60541 6.33093 4.30466 6.2397 4.04885 6.06877C3.79304 5.89785 3.59366 5.6549 3.47593 5.37066C3.35819 5.08642 3.32738 4.77365 3.38741 4.4719C3.44743 4.17015 3.59558 3.89298 3.81313 3.67543C4.03068 3.45788 4.30785 3.30973 4.6096 3.24971C4.91135 3.18969 5.22412 3.22049 5.50836 3.33823C5.7926 3.45597 6.03554 3.65535 6.20647 3.91116C6.37739 4.16696 6.46863 4.46772 6.46863 4.77538C6.46752 5.18721 6.30315 5.5818 6.01154 5.87262C5.71994 6.16345 5.32491 6.32676 4.91307 6.32676V6.33093Z" fill="#222222"/>
        <path d="M9.82133 5.20868C9.53835 5.20082 9.25776 5.15452 8.98725 5.07106V5.30877C8.98725 7.00195 7.97802 8.50746 7.23986 9.60845L7.08972 9.82948C6.37242 10.9054 5.42157 12.1107 4.90861 12.707C4.4165 12.1107 3.4448 10.9054 2.7275 9.82948L2.5857 9.59176C1.84755 8.49078 0.834141 6.98527 0.834141 5.29209C0.83667 4.59084 1.02014 3.90212 1.36681 3.29255C1.71348 2.68298 2.21161 2.1732 2.813 1.81253C3.4144 1.45186 4.0987 1.25252 4.7997 1.23378C5.5007 1.21503 6.19467 1.37754 6.81448 1.70556C6.84767 1.41881 6.92066 1.13808 7.03134 0.87148C6.28243 0.509777 5.45378 0.344637 4.62343 0.391613C3.79308 0.438588 2.98835 0.696132 2.28501 1.13999C1.58168 1.58385 1.00288 2.19942 0.603142 2.92874C0.203399 3.65805 -0.00414253 4.4771 6.26539e-05 5.30877C6.26539e-05 7.25635 1.0927 8.88697 1.89342 10.0755L2.03938 10.2924C2.83604 11.447 3.69068 12.5605 4.6 13.6287L4.91695 13.9999L5.2339 13.6287C6.14311 12.5605 6.99774 11.4469 7.79452 10.2924L7.94048 10.0714C8.73703 8.8828 9.82967 7.25635 9.82967 5.30877C9.8255 5.27541 9.82133 5.24205 9.82133 5.20868Z" fill="#222222"/>
        <path d="M9.91723 4.17039C11.0688 4.17039 12.0024 3.23682 12.0024 2.08519C12.0024 0.933573 11.0688 0 9.91723 0C8.7656 0 7.83203 0.933573 7.83203 2.08519C7.83203 3.23682 8.7656 4.17039 9.91723 4.17039Z" fill="#222222"/>
    </symbol>
     <symbol id="search" viewBox="0 0 16 16">       
        <path fill-rule="evenodd" clip-rule="evenodd" d="M10.5502 11.3768C9.27806 12.4363 7.6464 12.9645 5.99468 12.8516C4.34296 12.7388 2.79834 11.9935 1.68212 10.7708C0.565899 9.54809 -0.0359862 7.94214 0.00166574 6.287C0.0393176 4.63186 0.713608 3.05494 1.88427 1.88427C3.05494 0.713608 4.63186 0.0393176 6.287 0.00166574C7.94214 -0.0359862 9.54809 0.565899 10.7708 1.68212C11.9935 2.79834 12.7388 4.34296 12.8516 5.99468C12.9645 7.6464 12.4363 9.27806 11.3768 10.5502L15.8139 14.9873C15.8713 15.0408 15.9174 15.1054 15.9494 15.1771C15.9813 15.2489 15.9985 15.3263 15.9999 15.4048C16.0013 15.4834 15.9868 15.5614 15.9574 15.6342C15.928 15.707 15.8842 15.7732 15.8287 15.8287C15.7732 15.8842 15.707 15.928 15.6342 15.9574C15.5614 15.9868 15.4834 16.0013 15.4048 15.9999C15.3263 15.9985 15.2489 15.9813 15.1771 15.9494C15.1054 15.9174 15.0408 15.8713 14.9873 15.8139L10.5502 11.3768ZM1.16931 6.43292C1.16949 5.57773 1.37804 4.73546 1.77691 3.97899C2.17579 3.22251 2.75298 2.57462 3.45854 2.09136C4.1641 1.60811 4.97679 1.30404 5.82628 1.20548C6.67578 1.10692 7.53649 1.21683 8.33396 1.52569C9.13143 1.83456 9.84163 2.33308 10.4031 2.97813C10.9646 3.62318 11.3605 4.39532 11.5565 5.22775C11.7524 6.06019 11.7426 6.92784 11.5279 7.75563C11.3132 8.58343 10.9 9.34644 10.3241 9.97865C10.245 10.0077 10.1731 10.0535 10.1135 10.113C10.0538 10.1725 10.0078 10.2443 9.97865 10.3233C9.22456 11.0106 8.28697 11.464 7.27994 11.6282C6.27292 11.7924 5.23988 11.6603 4.30652 11.2481C3.37317 10.8359 2.57973 10.1614 2.02275 9.30647C1.46577 8.45159 1.16927 7.45325 1.16931 6.43292Z" fill="#222222"/>
    </symbol>


    <!-- Стрелки -->
    <symbol id="arr-right-injection" viewBox="0 0 20 20">
        <path d="M19 1L1 19" stroke="white" stroke-linecap="round" stroke-linejoin="round"/>
        <path d="M4 1H18C18.5523 1 19 1.44772 19 2V16" stroke="white" stroke-linecap="round" stroke-linejoin="round"/>
    </symbol>
    <symbol id="arr-right" viewBox="0 0 150 25">        
        <path d="M1 11L6 6L1 1" stroke="black" stroke-linecap="round" stroke-linejoin="round"/>
    </symbol>
     <symbol id="arr-top" viewBox="0 0 14 8">
        <path d="M13 7L7 1L1 7" stroke="white" stroke-linecap="round" stroke-linejoin="round"/>
    </symbol>
     <symbol id="arr-menu" viewBox="0 0 11 9">
        <path d="M5.5 9L0 0L11 9.08524e-07L5.5 9Z" fill="#222222"/>
    </symbol>



     <symbol id="esc" viewBox="0 0 14 14">
        <path d="M13 1L1 13" stroke="black" stroke-linecap="round" stroke-linejoin="round"/>
        <path d="M1 1L13 13" stroke="black" stroke-linecap="round" stroke-linejoin="round"/>
    </symbol>
    

    <symbol id="pdf" viewBox="0 0 13 16">
        <path d="M8.26485 10.8635L8.29958 10.8559L8.16952 10.7563C8.23856 10.7505 8.30448 10.7459 8.36732 10.7426L8.34341 10.8914C8.3174 10.8825 8.2912 10.8732 8.26485 10.8635ZM4.1662 12.5316C4.15999 12.5289 4.14386 12.5189 4.13051 12.4949C4.12702 12.4884 4.12427 12.4822 4.12222 12.4767C4.12427 12.4702 4.12668 12.4634 4.1295 12.4563L4.21925 12.5352C4.20779 12.5371 4.19983 12.5375 4.19546 12.5375C4.19153 12.5375 4.1876 12.5371 4.18301 12.5362C4.17882 12.5354 4.1734 12.534 4.1662 12.5316ZM11.6372 5.17857H12.5V15.4286C12.5 15.4528 12.4757 15.5 12.4091 15.5H0.590909C0.524273 15.5 0.5 15.4528 0.5 15.4286V0.571429C0.5 0.547166 0.524273 0.5 0.590909 0.5H7.66193V1.31786V4.67857V5.17857H8.16193H11.6372ZM12.5 4.81736L11.9848 4.31914L8.50951 0.958429L8.03545 0.5H8.43523C8.46325 0.5 8.48797 0.510842 8.50498 0.527285L8.85256 0.167857L8.50498 0.527286L12.4788 4.37014C12.4941 4.38492 12.5 4.40242 12.5 4.41607V4.81736ZM11.6705 15.2143H12.1705V14.7143V5.89286V5.39286H11.6705H7.68182C7.60343 5.39286 7.53148 5.36259 7.48099 5.31376C7.43107 5.26548 7.40625 5.20365 7.40625 5.14286V1.28571V0.785714H6.90625H1.32955H0.829545V1.28571V14.7143V15.2143H1.32955H11.6705Z" stroke="white"/>
    </symbol>

     



</svg>